<svg id="圖層_1" data-name="圖層 1" xmlns="http://www.w3.org/2000/svg" viewBox="0 0 122.25 149.43"><defs><style>.cls-1{fill:#fff;}</style></defs><title>akaAward</title><polygon points="3.32 2.51 3.32 147.23 60.65 134.98 120.5 147.23 120.5 2.51 3.32 2.51"/><polygon class="cls-1" points="118.74 2.51 118.74 145.05 60.64 132.54 5.08 145.03 5.08 2.51 1.56 2.51 1.56 149.43 60.66 136.14 122.25 149.4 122.25 2.51 118.74 2.51"/><path class="cls-1" d="M27.17,82a7.29,7.29,0,0,0-2-6.42,9.8,9.8,0,0,0-6.47-3,8.2,8.2,0,0,0,1.9,7A8.45,8.45,0,0,0,27.17,82"/><path class="cls-1" d="M33.49,81.37a8.47,8.47,0,0,0,4-5.81A8.22,8.22,0,0,0,35,68.78,9.8,9.8,0,0,0,31.44,75a7.32,7.32,0,0,0,2.05,6.42"/><path class="cls-1" d="M38.52,91.41a8.48,8.48,0,0,0,3.18-6.28,8.27,8.27,0,0,0-3.32-6.4,9.84,9.84,0,0,0-2.72,6.59,7.29,7.29,0,0,0,2.86,6.09"/><path class="cls-1" d="M48.63,90.67a8.25,8.25,0,0,0-3.9-6.07,9.85,9.85,0,0,0-2.1,6.81,7.29,7.29,0,0,0,3.43,5.8,8.49,8.49,0,0,0,2.57-6.54"/><path class="cls-1" d="M55.53,102.22a8.45,8.45,0,0,0,.58-7,8.28,8.28,0,0,0-5.48-4.69,9.85,9.85,0,0,0-.05,7.13,7.28,7.28,0,0,0,5,4.57"/><path class="cls-1" d="M28.56,73.17a7.28,7.28,0,0,0,1.9-6.46,9.82,9.82,0,0,0-3.71-6.08,8.23,8.23,0,0,0-2.28,6.84,8.42,8.42,0,0,0,4.09,5.7"/><path class="cls-1" d="M30.62,89.8a7.3,7.3,0,0,0-3.81-5.55,9.87,9.87,0,0,0-7.07-1,8.25,8.25,0,0,0,3.86,6.09,8.5,8.5,0,0,0,7,.42"/><path class="cls-1" d="M36.72,96.68a7.3,7.3,0,0,0-4.95-4.56,9.83,9.83,0,0,0-7.11.62,8.26,8.26,0,0,0,5.12,5.08,8.46,8.46,0,0,0,6.94-1.14"/><path class="cls-1" d="M43.53,101.58a7.28,7.28,0,0,0-6.1-2.85,9.85,9.85,0,0,0-6.58,2.74,8.25,8.25,0,0,0,6.42,3.3,8.47,8.47,0,0,0,6.26-3.19"/><path class="cls-1" d="M46.44,103.58a9.85,9.85,0,0,0-6.2,3.51A8.23,8.23,0,0,0,47,109.6a8.45,8.45,0,0,0,5.83-3.92,7.3,7.3,0,0,0-6.4-2.1"/><path class="cls-1" d="M29.91,75.2l-2-.08c0,.22-.5,21.6,31.77,31.24l.56-1.89C29.55,95.29,29.88,76,29.91,75.2"/><path class="cls-1" d="M97.24,82.05a8.49,8.49,0,0,0,6.58-2.48,8.22,8.22,0,0,0,1.89-6.95,9.8,9.8,0,0,0-6.47,3,7.28,7.28,0,0,0-2,6.43"/><path class="cls-1" d="M87,75.62a8.47,8.47,0,0,0,4,5.81A7.32,7.32,0,0,0,93,75a9.81,9.81,0,0,0-3.56-6.17A8.24,8.24,0,0,0,87,75.62"/><path class="cls-1" d="M86,78.79a8.24,8.24,0,0,0-3.32,6.4,8.5,8.5,0,0,0,3.18,6.28,7.33,7.33,0,0,0,2.87-6.1A9.87,9.87,0,0,0,86,78.79"/><path class="cls-1" d="M75.77,90.72a8.47,8.47,0,0,0,2.57,6.54,7.29,7.29,0,0,0,3.43-5.8,9.85,9.85,0,0,0-2.1-6.81,8.28,8.28,0,0,0-3.9,6.07"/><path class="cls-1" d="M68.29,95.27a8.43,8.43,0,0,0,.58,7,7.3,7.3,0,0,0,4.95-4.56,9.84,9.84,0,0,0,0-7.13,8.24,8.24,0,0,0-5.48,4.69"/><path class="cls-1" d="M95.84,73.23a8.48,8.48,0,0,0,4.1-5.71,8.22,8.22,0,0,0-2.29-6.84A9.83,9.83,0,0,0,94,66.77a7.28,7.28,0,0,0,1.89,6.46"/><path class="cls-1" d="M97.59,84.31a7.3,7.3,0,0,0-3.81,5.55,8.46,8.46,0,0,0,7-.43,8.23,8.23,0,0,0,3.87-6.09,9.85,9.85,0,0,0-7.07,1"/><path class="cls-1" d="M92.63,92.18a7.3,7.3,0,0,0-4.95,4.56,8.48,8.48,0,0,0,6.94,1.14,8.24,8.24,0,0,0,5.12-5.08,9.83,9.83,0,0,0-7.11-.62"/><path class="cls-1" d="M87,98.79a7.28,7.28,0,0,0-6.1,2.85,8.47,8.47,0,0,0,6.26,3.19,8.28,8.28,0,0,0,6.42-3.3A9.82,9.82,0,0,0,87,98.79"/><path class="cls-1" d="M78,103.63a7.3,7.3,0,0,0-6.4,2.1,8.48,8.48,0,0,0,5.83,3.92,8.23,8.23,0,0,0,6.77-2.51,9.85,9.85,0,0,0-6.2-3.51"/><path class="cls-1" d="M96.46,75.17l-2,.08c0,.82.36,20.09-30.36,29.27l.56,1.89c32.27-9.64,31.78-31,31.77-31.24"/><polygon class="cls-1" points="71.54 42.56 43.84 73.35 51.18 73.35 72.86 48.48 72.91 48.48 72.91 74 78.9 74 78.9 42.56 71.54 42.56"/></svg>