<svg id="圖層_1" data-name="圖層 1" xmlns="http://www.w3.org/2000/svg" viewBox="0 0 696.07 937.92"><defs><style>.cls-1{fill:#fff;}</style></defs><title>akaS_web</title><path class="cls-1" d="M583.53,100.16H360.71V42.4a8.25,8.25,0,1,0-16.49,0v57.76H121.42a8.26,8.26,0,0,0-8.26,8.26V702.56a8.26,8.26,0,0,0,8.26,8.26H275L212.6,898a8.28,8.28,0,0,0,5.23,10.45,8.17,8.17,0,0,0,2.61.41,8.27,8.27,0,0,0,7.82-5.65l42.13-126.38H434.55l42.12,126.38a8.3,8.3,0,0,0,7.83,5.65,8.17,8.17,0,0,0,2.61-.41A8.26,8.26,0,0,0,492.32,898L429.94,710.82H583.53a8.26,8.26,0,0,0,8.25-8.26V108.42a8.26,8.26,0,0,0-8.25-8.26M429.06,760.32H275.9l16.49-49.5H412.52Zm146.22-66H129.66V116.69H575.28Z"/><path class="cls-1" d="M239.51,523.91c-7.62,7.6-8.59,18.76-9.61,30.58-1.22,13.86-2.47,28.19-13.72,39.45-5.06,5.07-4.22,9.6-3.31,11.87s3.52,6,10.46,6c13.74,0,62.17-17.18,74.53-29.53a41.26,41.26,0,0,0,5.23-51.94L461.23,372.21a8.26,8.26,0,0,0-11.67-11.68L291.35,518.74c-15.83-10.12-38.24-8.41-51.84,5.17m-16.17,79.63-.17-8.27a.47.47,0,0,0,.17,0Zm62.87-32.94c-6,6-31.2,16.47-48.45,21.63,6.49-12.24,7.61-25.25,8.58-36.31.76-8.72,1.49-16.95,4.86-20.32a24.75,24.75,0,1,1,35,35"/></svg>