<svg id="圖層_1" data-name="圖層 1" xmlns="http://www.w3.org/2000/svg" viewBox="0 0 240 240"><defs>
<style>
.cls-3{fill:none;stroke-linecap:round;stroke-miterlimit:10;stroke-width:10px;}
.cls-4{fill:none;stroke-linejoin:round;stroke-width:10px;}
</style>
</defs>
<path class="cls-4" d="M188.34,136.36,128.71,92.93a10.18,10.18,0,0,0-2-1.15l7.66-10.6a9.1,9.1,0,0,0,1.6-3.89,7.8,7.8,0,0,0,10.28-2.16l3.08-4.26A7.82,7.82,0,0,0,147.56,60L106.5,30.27A7.83,7.83,0,0,0,95.59,32l-3.08,4.27a7.81,7.81,0,0,0,.11,9.31,9.1,9.1,0,0,0-3.49,2.89L59,90.24a7.82,7.82,0,0,0-7.7,3.1l-3.08,4.27a7.8,7.8,0,0,0,1.75,10.9L91,138.21a7.81,7.81,0,0,0,10.9-1.76l3.08-4.26a7.82,7.82,0,0,0-.47-9.74l10-13.77a11.56,11.56,0,0,0,1.67,1.52l59.63,43.43a3.67,3.67,0,0,0,5.12-.8l8.26-11.35A3.67,3.67,0,0,0,188.34,136.36Z"/>
<path class="cls-3" d="M126.73,173.73h-6.81a11.72,11.72,0,0,0-10.89-16H39.37A11.72,11.72,0,0,0,27.64,169.4a11.56,11.56,0,0,0,.84,4.33H21.66a5.36,5.36,0,0,0,0,10.71H126.73a5.36,5.36,0,1,0,0-10.71Z"/>
</svg>