<svg id="圖層_1" data-name="圖層 1" xmlns="http://www.w3.org/2000/svg" viewBox="-10 -20 220 220"><defs>
<style>
.cls-5{fill:#fff;stroke-width:4px;}
.cls-3{stroke-width:4px;}
.cls-6{fill:none;stroke-width:8px;}</style>
</defs><title>bundleIcon</title>
<path class="cls-5" d="M12,78.37V23.67C12,16.3,16.72,11.6,24.12,11.6H133.33c7.5,0,12.24,4.65,12.24,12.19q0,54.6,0,109.21c0,7.65-4.71,12.27-12.37,12.27-36.27,0-72.54-.06-108.82,0-7.41,0-12.56-5.4-12.46-12.44C12.16,114.71,12,96.54,12,78.37ZM77.56,17.53c-.54,0-.86-.09-1.18-.09q-26.37,0-52.75,0c-3.67,0-5.77,2.22-5.78,5.91q0,26,0,52c0,.61.05,1.23.08,1.82H77.56ZM17.85,79.64v53.3c0,4.54,2,6.48,6.56,6.48h53.1V79.64ZM80,77.12h59.62c0-.47.08-.79.08-1.11q0-26.28,0-52.57c0-3.9-2.18-6-6.12-6q-25.91,0-51.81,0c-.56,0-1.11.07-1.76.11Zm0,62.3h53c4.77,0,6.71-1.95,6.71-6.76q0-25.43,0-50.84V79.69H80Z"/>
<rect class="cls-6" x="11.92" y="11.59" width="133.68" height="133.68" rx="12" ry="12"/>
</svg>