<svg fill="#000000" xmlns="http://www.w3.org/2000/svg"  viewBox="0 -25 265 265" width="30px" height="30px" style="margin-left: 0.6rem;">
<path d="M83,101.05c-9.7-.07-16.71,6.91-16.75,16.69,0,9.33,6.92,16.8,15.71,16.86A16.62,16.62,0,0,0,98.67,118C98.74,108.76,91.67,101.12,83,101.05Z"/>
<path d="M112.5,0A112.5,112.5,0,1,0,225,112.5,112.5,112.5,0,0,0,112.5,0Zm53.74,172.82c-6.62,1-11.29-.15-14.76-5.95a82.69,82.69,0,0,0-5.21-6.86c10.15-3.4,19.39-7.58,26.19-14.85-7.81,3.37-15.82,7.43-24.23,10.34-20.83,7.21-42,6.69-63,1-10.16-2.76-20-6.65-30-10-.93-.32-1.84-.66-2.75-1l-.59.87c3.94,2.83,7.7,6,11.87,8.4s8.86,4.22,13.64,6.44c-3.45,4.25-6.83,8.47-10.32,12.6a3,3,0,0,1-2.21.58c-16.93-1.09-32.19-6.11-44.15-18.88a12.63,12.63,0,0,1-3.8-10A205.25,205.25,0,0,1,39.4,62.19,12.08,12.08,0,0,1,43.12,58,85.17,85.17,0,0,1,82.23,43.14c4.07-.48,4.86-.22,6,2.06-6.6,2.3-13.37,4.23-19.77,7A163.71,163.71,0,0,0,50,62.31q61.22-25.71,122,.37C161.29,55,149.26,50.19,136.7,46.26c1.08-2.19,2.35-3.25,4.64-3A83.28,83.28,0,0,1,182.77,58.5a9,9,0,0,1,2.77,3.07,196.05,196.05,0,0,1,20.85,64c1,7.46,1.38,15,1.78,22.56a6.73,6.73,0,0,1-1.7,4.46C195.48,164.07,182,170.45,166.24,172.82Z"/>
<path d="M142.53,101.05A16.47,16.47,0,0,0,125.8,117.6c-.06,9.28,7.16,17,16,17,9.34.05,16.39-7.14,16.42-16.74C158.24,108.43,151.4,101.09,142.53,101.05Z"/>
</svg>


