<svg xmlns="http://www.w3.org/2000/svg" viewBox="0 -10 250 240" width="30px" height="30px" style="margin-left: 0.4rem;">
<path d="M225,121c-1.57,7.78-2.45,15.79-4.83,23.32-11.34,35.9-34.58,60.76-70.08,73.82-6.58,2.42-9.36.44-9.43-6.6-.08-8.33,0-16.66,0-25,0-12-.69-14.52-6.6-24.46,3.82-.74,7.49-1.41,11.16-2.15,23-4.66,37.34-21.57,38.8-45,.86-13.71-.61-26.58-10-37.49-.64-.73-.61-2.44-.3-3.54,2.16-7.77,1.51-15.34-.43-23.11-1.25-5-4.37-5.8-8-4.45a169.17,169.17,0,0,0-20.43,9c-3,1.58-5.51,2.24-8.81,1.44a98.07,98.07,0,0,0-46.91,0c-3.29.8-5.8.18-8.82-1.4a183.22,183.22,0,0,0-20.45-9c-4-1.52-7.06-.52-8.26,4.7-1.71,7.46-2.22,14.71-.44,22.18a6.52,6.52,0,0,1-.65,4.8c-24.1,32.86-5.27,77.49,35.07,82.94,1.77.24,3.51.68,4.78.93-1.82,4.66-3.46,9.12-5.35,13.47A4.91,4.91,0,0,1,82.26,178c-11.62,3.54-21.12,3.42-29.11-8.92-3.75-5.79-8.26-10.55-15.07-12.3-2.5-.64-5.3-.1-8-.1l-.67,1.47c1.5,1.6,3.05,3.16,4.49,4.81,3.67,4.2,9,7.88,10.59,12.77,5.17,16.4,20,19.3,35.35,17.87,1.27-.11,2.54-.31,4.74-.6,0,7.2.26,14-.09,20.75-.26,5-3.66,6.52-9.14,4.65-22.83-7.77-40.95-21.82-54.83-41.4C9.37,161.18,2.53,143.73.84,124.37A20.82,20.82,0,0,0,0,121V104c.77-4.89,1.3-9.82,2.33-14.65C14.67,31.67,67.71-6.74,126.14,1,173.7,7.28,204.83,34.53,220,79.83c2.6,7.76,3.37,16.12,5,24.21Z"/></svg>