<svg id="圖層_1" data-name="圖層 1" xmlns="http://www.w3.org/2000/svg" viewBox="0 0 696.07 781.55"><defs><style>.cls-1{fill:#231815;}</style></defs><title>akaS_black</title><path class="cls-1" d="M680.67,350.05c-16.45,0-25.17,8.36-32.17,15.08-6.74,6.46-12,11.53-23.33,11.53s-16.61-5.07-23.32-11.51c-7-6.74-15.74-15.1-32.19-15.1s-25.16,8.36-32.17,15.09c-6.7,6.45-12,11.52-23.29,11.52s-16.57-5.07-23.27-11.5c-2.08-2-4.3-4.11-6.67-6l-.68-.54-.1-.87C459.94,152.27,358.54,42.28,353,36.42l-1.14-.81a7.22,7.22,0,0,0-1.24-.85l-1.53-.31a2.18,2.18,0,0,0-1.42-.05l-1.23.23a5.78,5.78,0,0,0-.64.12,3.38,3.38,0,0,0-.45.31l-1.92,1.33C338,42,285.86,97.71,247.31,205.8c-16.84,47.2-28.5,98.26-34.64,151.7l-.1.88-.69.55c-2.66,2.11-5.12,4.43-7,6.21-6.7,6.45-12,11.52-23.27,11.52s-16.57-5.07-23.26-11.51c-7-6.74-15.71-15.1-32.13-15.1s-25.13,8.36-32.13,15.08c-6.71,6.46-12,11.53-23.29,11.53s-16.59-5.08-23.28-11.52c-7.4-7.08-15.74-15.09-32.15-15.09a6.4,6.4,0,0,0,0,12.79c11.28,0,16.57,5.1,23.26,11.51,7.41,7.11,15.76,15.11,32.16,15.11s25.14-8.38,32.14-15.1c6.71-6.44,12-11.52,23.29-11.52s16.56,5.1,23.26,11.51c7,6.76,15.73,15.11,32.12,15.11a37.88,37.88,0,0,0,25.13-8.84l3.85-3.09-.4,4.93c-8.39,102.92,3.49,212.34,35.3,325.24a6.41,6.41,0,0,0,3.55,4.09,6.52,6.52,0,0,0,5.43-.09l93.67-45.88,90.59,45.84a6.54,6.54,0,0,0,5.44.17,6.4,6.4,0,0,0,3.58-4.05C481.3,595,494.12,485.57,485.89,382.67l-.39-4.86,3.83,3a37.82,37.82,0,0,0,24.87,8.63c16.43,0,25.15-8.38,32.15-15.1,6.73-6.44,12-11.52,23.31-11.52s16.58,5.07,23.29,11.49c7.07,6.78,15.8,15.13,32.22,15.13s25.15-8.35,32.14-15.07c6.75-6.47,12.07-11.55,23.36-11.55a6.4,6.4,0,0,0,0-12.79M341.8,654.69l-86.05,42.14-.67-2.5c-41.67-153.19-45.85-297-12.42-427.3C269.56,162.16,313.91,94.09,338,62.84l3.83-5Zm96.56,39.61-.71,2.47-83.07-42V57.84l3.82,4.94C403.09,120.58,541,337,438.36,694.3"/></svg>