<svg id="圖層_1" data-name="圖層 1" xmlns="http://www.w3.org/2000/svg" viewBox="0 0 700.5 182.51"><defs><style>.cls-1{fill:#ef7c1b;}.cls-2{fill:#fff;}</style></defs><title>VIP</title><polygon class="cls-1" points="19.87 0 700.73 181.58 700.73 0 19.87 0"/><path class="cls-2" d="M408.07,23.34l4.25,34.12,20.09-27.88,4.93,1.27L413,63.87l-4.26-1.09-5.55-40.7Z"/><path class="cls-2" d="M432.88,69l9.44-36.86,4.68,1.2-9.45,36.85Z"/><path class="cls-2" d="M446.38,72.43l9.44-36.85,15.37,3.94a10.12,10.12,0,0,1,4.2,2.15,12,12,0,0,1,2.84,3.61,13,13,0,0,1,1.36,4.38,11.89,11.89,0,0,1-.26,4.5,13.31,13.31,0,0,1-2.82,5.39A11.85,11.85,0,0,1,471.59,63a10.18,10.18,0,0,1-6.15.23l-11-2.82-3.39,13.23Zm9.12-16.19L466.25,59a5.82,5.82,0,0,0,3.61-.18,7.14,7.14,0,0,0,2.95-2.24A9.3,9.3,0,0,0,474.6,53a8.28,8.28,0,0,0,.07-4.16,7.42,7.42,0,0,0-1.74-3.35,6.15,6.15,0,0,0-3.07-1.84l-10.43-2.67Z"/><path class="cls-2" d="M505.33,87.82a16.35,16.35,0,0,1-6.66-3.37,17.7,17.7,0,0,1-4.39-5.63,20.13,20.13,0,0,1-2-6.94,20.44,20.44,0,0,1,.52-7.19,19.52,19.52,0,0,1,3.13-6.7,20.2,20.2,0,0,1,5.21-5,18.28,18.28,0,0,1,6.59-2.74,16.14,16.14,0,0,1,7.3.24,15.73,15.73,0,0,1,6.65,3.42,17.93,17.93,0,0,1,4.34,5.7,20.67,20.67,0,0,1,2,6.93,20,20,0,0,1-8.78,18.85,18,18,0,0,1-6.59,2.71A16.4,16.4,0,0,1,505.33,87.82ZM497.5,65.9a17.16,17.16,0,0,0-.48,5.66,15.53,15.53,0,0,0,1.38,5.3,12.72,12.72,0,0,0,3.18,4.24,12.22,12.22,0,0,0,10.49,2.64,12.86,12.86,0,0,0,4.83-2.31,15.6,15.6,0,0,0,3.68-4,17,17,0,0,0,2.2-5,16.74,16.74,0,0,0,.48-5.63,15.47,15.47,0,0,0-1.41-5.31,12.7,12.7,0,0,0-3.17-4.24,12.27,12.27,0,0,0-10.42-2.61,12.54,12.54,0,0,0-4.81,2.27,16,16,0,0,0-3.71,4A16.76,16.76,0,0,0,497.5,65.9Z"/><path class="cls-2" d="M541.18,66.63,534,94.87l-4.68-1.19,9.45-36.86,3.94,1,15.15,34.58,7.37-28.75,4.67,1.19-9.43,36.81-4.26-1.09Z"/><path class="cls-2" d="M569.24,103.92l9.45-36.86,4.67,1.2L575,101l20.56,5.27-1.07,4.15Z"/><path class="cls-2" d="M604.75,73.74,611,95.8l16.18-16.31,5.09,1.3-20,19.82-3.44,13.44-4.67-1.19,3.47-13.55-8-26.89Z"/></svg>