<svg id="圖層_1" data-name="圖層 1" xmlns="http://www.w3.org/2000/svg" viewBox="0 0 1342 369.55"><defs><style>.cls-1{fill:#231815;}</style></defs><title>akaS_black</title><polygon class="cls-1" points="373.04 36.99 373.04 326.06 318 326.06 318 91.41 317.5 91.41 113.02 326.06 45.37 326.06 305.38 36.99 373.04 36.99"/><polygon class="cls-1" points="471.99 180.17 620.43 326.06 552.27 326.06 408.88 180.17 552.27 36.99 620.43 36.99 471.99 180.17"/><polygon class="cls-1" points="983.95 36.99 983.95 326.06 928.91 326.06 928.91 91.41 928.41 91.41 723.93 326.06 656.28 326.06 916.29 36.99 983.95 36.99"/><polygon class="cls-1" points="1119.19 88.24 1285.33 88.24 1285.33 38.83 1016.59 39.02 1204.87 273.57 1027.85 273.57 1027.85 326.17 1308.78 326.17 1119.19 88.24"/></svg>