<svg id="Layer_2" data-name="Layer 2" xmlns="http://www.w3.org/2000/svg" viewBox="0 0 512 512"><defs><style>.cls-1{fill:#fff;}</style></defs><path class="cls-1" d="M480,224a10.67,10.67,0,0,1-10.67-10.67A233.09,233.09,0,0,0,400.6,47.4a10.66,10.66,0,1,1,15.08-15.08,254.24,254.24,0,0,1,75,181A10.67,10.67,0,0,1,480,224Z"/><path class="cls-1" d="M32,224a10.67,10.67,0,0,1-10.67-10.67,254.24,254.24,0,0,1,75-181A10.66,10.66,0,0,1,111.4,47.4,233.09,233.09,0,0,0,42.67,213.33,10.67,10.67,0,0,1,32,224Z"/><path class="cls-1" d="M288,89.17a10.67,10.67,0,0,1-10.67-10.66V42.67a21.33,21.33,0,1,0-42.66,0V78.51a10.67,10.67,0,0,1-21.34,0V42.67a42.67,42.67,0,0,1,85.34,0V78.51A10.65,10.65,0,0,1,288,89.17Z"/><path class="cls-1" d="M256,512a74.75,74.75,0,0,1-74.67-74.67,10.67,10.67,0,0,1,21.34,0,53.33,53.33,0,1,0,106.66,0,10.67,10.67,0,0,1,21.34,0A74.75,74.75,0,0,1,256,512Z"/><path class="cls-1" d="M437.33,448H74.67a32,32,0,0,1-20.8-56.32,148.33,148.33,0,0,0,52.8-113.54V213.33C106.67,131,173.65,64,256,64s149.33,67,149.33,149.33v64.81A148.16,148.16,0,0,0,458,391.53,32,32,0,0,1,437.33,448ZM256,85.33a128.13,128.13,0,0,0-128,128v64.81A169.49,169.49,0,0,1,67.82,407.83a10.66,10.66,0,0,0,6.85,18.84H437.33a10.67,10.67,0,0,0,6.94-18.78A169.59,169.59,0,0,1,384,278.14V213.33a128.13,128.13,0,0,0-128-128Z"/></svg>