<svg id="圖層_1" data-name="圖層 1" xmlns="http://www.w3.org/2000/svg" viewBox="0 0 302.49 85.04"><defs><style>.cls-1{fill:#e43936;}.cls-2{fill:#fff;}.cls-3{fill:#1f2023;}</style></defs><title>akaS_logo</title><rect class="cls-1" x="240.39" y="42.52" width="52.7" height="26.63" rx="3.67" ry="3.67"/><path class="cls-2" d="M257.73,59.5a3.42,3.42,0,0,1-.54,1.89,3.8,3.8,0,0,1-1.45,1.3,4.32,4.32,0,0,1-2,.47h-6.7V49h6.84a2.82,2.82,0,0,1,1.73.53,3.38,3.38,0,0,1,1.12,1.36,4,4,0,0,1,.39,1.73,3.76,3.76,0,0,1-.54,2,3.36,3.36,0,0,1-1.5,1.34A3.52,3.52,0,0,1,257,57.22,3.79,3.79,0,0,1,257.73,59.5Zm-9.28-9.32v5.24h4.88a2.18,2.18,0,0,0,1.24-.37,2.68,2.68,0,0,0,.86-1,2.73,2.73,0,0,0,.32-1.28,2.84,2.84,0,0,0-.3-1.31,2.45,2.45,0,0,0-.82-1,2,2,0,0,0-1.18-.36Zm7.88,9.08a2.84,2.84,0,0,0-.32-1.33,2.61,2.61,0,0,0-.87-1,2.1,2.1,0,0,0-1.25-.38h-5.44v5.38h5.3a2.36,2.36,0,0,0,1.3-.38,2.93,2.93,0,0,0,.93-1A2.65,2.65,0,0,0,256.33,59.26Z"/><path class="cls-2" d="M264.59,63.36a5.13,5.13,0,0,1-2.08-.43,5.18,5.18,0,0,1-1.66-1.18A5.41,5.41,0,0,1,259.76,60a5.59,5.59,0,0,1-.39-2.09,5.34,5.34,0,0,1,.67-2.66,5.14,5.14,0,0,1,1.85-1.94,5.05,5.05,0,0,1,2.68-.72,4.88,4.88,0,0,1,2.69.73,5.27,5.27,0,0,1,1.81,1.94,5.38,5.38,0,0,1,.66,2.63v.31a1.3,1.3,0,0,1,0,.23h-8.92a4.62,4.62,0,0,0,.63,2,4,4,0,0,0,1.38,1.37,3.53,3.53,0,0,0,1.85.51,3.91,3.91,0,0,0,1.93-.52,2.86,2.86,0,0,0,1.27-1.36l1.18.32a3.89,3.89,0,0,1-1,1.34,4.75,4.75,0,0,1-1.55.93A5.44,5.44,0,0,1,264.59,63.36Zm-3.84-5.88h7.7a4.24,4.24,0,0,0-.61-2,3.75,3.75,0,0,0-3.25-1.82,3.68,3.68,0,0,0-1.86.48,3.77,3.77,0,0,0-1.37,1.35A4.27,4.27,0,0,0,260.75,57.48Z"/><path class="cls-2" d="M276.73,62.74l-.5.22a5.2,5.2,0,0,1-.82.28,4.3,4.3,0,0,1-1,.12,2.83,2.83,0,0,1-1.09-.22,1.86,1.86,0,0,1-.81-.68,2,2,0,0,1-.3-1.11V53.86h-1.44V52.78h1.44V49.26h1.36v3.52h2.4v1.08h-2.4V61a1.11,1.11,0,0,0,.41.85,1.42,1.42,0,0,0,.85.28,2.8,2.8,0,0,0,1-.19,3.64,3.64,0,0,0,.56-.27Z"/><path class="cls-2" d="M277.59,60.18a2.64,2.64,0,0,1,.56-1.68,3.61,3.61,0,0,1,1.55-1.1A6.43,6.43,0,0,1,282,57a10.92,10.92,0,0,1,1.58.12,7.09,7.09,0,0,1,1.46.36v-.88a2.81,2.81,0,0,0-.78-2.09,3,3,0,0,0-2.16-.77,4.51,4.51,0,0,0-1.65.31,8.06,8.06,0,0,0-1.69.91l-.52-1a8.59,8.59,0,0,1,2-1.05,5.73,5.73,0,0,1,2-.35,4.16,4.16,0,0,1,3,1.09,4,4,0,0,1,1.12,3v4.79a.59.59,0,0,0,.12.41.64.64,0,0,0,.38.15v1.08l-.38,0h-.24a1,1,0,0,1-.76-.32,1.08,1.08,0,0,1-.28-.64l0-.76a4.62,4.62,0,0,1-1.82,1.39,5.78,5.78,0,0,1-2.28.49,3.87,3.87,0,0,1-1.81-.43A3.19,3.19,0,0,1,278,61.78,3,3,0,0,1,277.59,60.18Zm7,.79a2.52,2.52,0,0,0,.34-.54A1.08,1.08,0,0,0,285,60V58.47a8.14,8.14,0,0,0-1.41-.39,7.32,7.32,0,0,0-1.47-.14,4.36,4.36,0,0,0-2.36.57,1.79,1.79,0,0,0-.9,1.57,2.1,2.1,0,0,0,.3,1.08,2.35,2.35,0,0,0,.88.83,2.71,2.71,0,0,0,1.36.33,4.51,4.51,0,0,0,1.83-.38A3.26,3.26,0,0,0,284.57,61Z"/><polygon class="cls-3" points="70.16 19.16 70.16 69.14 60.65 69.14 60.65 28.57 60.56 28.57 25.2 69.14 13.5 69.14 58.46 19.16 70.16 19.16"/><polygon class="cls-3" points="87.27 43.91 112.94 69.14 101.15 69.14 76.36 43.91 101.15 19.16 112.94 19.16 87.27 43.91"/><polygon class="cls-3" points="175.8 19.16 175.8 69.14 166.28 69.14 166.28 28.57 166.2 28.57 130.84 69.14 119.14 69.14 164.1 19.16 175.8 19.16"/><polygon class="cls-3" points="199.19 28.02 227.91 28.02 227.91 19.47 181.44 19.51 214 60.06 183.39 60.06 183.39 69.16 231.97 69.16 199.19 28.02"/></svg>