<svg id="圖層_1" data-name="圖層 1" xmlns="http://www.w3.org/2000/svg" viewBox="0 0 307.53 85.04"><defs><style>.cls-1{fill:#fff;}.cls-2{fill:#e43936;}</style></defs><title>akaS_logo</title><polygon class="cls-1" points="70.16 19.16 70.16 69.14 60.65 69.14 60.65 28.57 60.56 28.57 25.2 69.14 13.5 69.14 58.46 19.16 70.16 19.16"/><polygon class="cls-1" points="87.27 43.91 112.94 69.14 101.15 69.14 76.36 43.91 101.15 19.16 112.94 19.16 87.27 43.91"/><polygon class="cls-1" points="175.8 19.16 175.8 69.14 166.28 69.14 166.28 28.57 166.2 28.57 130.84 69.14 119.14 69.14 164.1 19.16 175.8 19.16"/><polygon class="cls-1" points="199.19 28.02 227.91 28.02 227.91 19.47 181.44 19.51 214 60.06 183.39 60.06 183.39 69.16 231.97 69.16 199.19 28.02"/><rect class="cls-2" x="240.39" y="41.83" width="52.7" height="26.63" rx="3.67" ry="3.67"/><path class="cls-1" d="M257.73,58.81a3.37,3.37,0,0,1-.54,1.89,3.72,3.72,0,0,1-1.45,1.3,4.32,4.32,0,0,1-2,.47h-6.7V48.27h6.84a2.89,2.89,0,0,1,1.73.53,3.45,3.45,0,0,1,1.12,1.36,4,4,0,0,1,.39,1.73,3.73,3.73,0,0,1-.54,2,3.31,3.31,0,0,1-1.5,1.34A3.57,3.57,0,0,1,257,56.53,3.81,3.81,0,0,1,257.73,58.81Zm-9.28-9.32v5.24h4.88a2.11,2.11,0,0,0,1.24-.37,2.68,2.68,0,0,0,.86-1,2.73,2.73,0,0,0,.32-1.28,2.84,2.84,0,0,0-.3-1.31,2.52,2.52,0,0,0-.82-.95,2,2,0,0,0-1.18-.36Zm7.88,9.08a2.87,2.87,0,0,0-.32-1.33,2.61,2.61,0,0,0-.87-1,2.17,2.17,0,0,0-1.25-.38h-5.44v5.38h5.3a2.36,2.36,0,0,0,1.3-.38,2.76,2.76,0,0,0,.93-1A2.6,2.6,0,0,0,256.33,58.57Z"/><path class="cls-1" d="M264.59,62.67a5,5,0,0,1-2.08-.43,5.15,5.15,0,0,1-1.66-1.17,5.46,5.46,0,0,1-1.09-1.73,5.55,5.55,0,0,1-.39-2.09,5.39,5.39,0,0,1,.67-2.66,5.12,5.12,0,0,1,1.85-1.93,5,5,0,0,1,2.68-.73,4.89,4.89,0,0,1,2.69.74,5.24,5.24,0,0,1,1.81,1.93,5.38,5.38,0,0,1,.66,2.63v.31a1.21,1.21,0,0,1,0,.23h-8.92a4.62,4.62,0,0,0,.63,2,3.85,3.85,0,0,0,1.38,1.37,3.53,3.53,0,0,0,1.85.51,3.81,3.81,0,0,0,1.93-.52,2.86,2.86,0,0,0,1.27-1.36l1.18.32a3.89,3.89,0,0,1-1,1.34,4.75,4.75,0,0,1-1.55.93A5.44,5.44,0,0,1,264.59,62.67Zm-3.84-5.88h7.7a4.27,4.27,0,0,0-.61-2,3.74,3.74,0,0,0-1.38-1.33,3.65,3.65,0,0,0-1.87-.49,3.59,3.59,0,0,0-1.86.49,3.82,3.82,0,0,0-1.37,1.34A4.31,4.31,0,0,0,260.75,56.79Z"/><path class="cls-1" d="M276.73,62.05l-.5.22a4.35,4.35,0,0,1-.82.28,4.3,4.3,0,0,1-1,.12,2.66,2.66,0,0,1-1.09-.22,1.84,1.84,0,0,1-.81-.67,2,2,0,0,1-.3-1.12V53.17h-1.44V52.09h1.44V48.57h1.36v3.52h2.4v1.08h-2.4v7.12a1.1,1.1,0,0,0,.41.84,1.36,1.36,0,0,0,.85.28,2.61,2.61,0,0,0,1-.19,3.64,3.64,0,0,0,.56-.27Z"/><path class="cls-1" d="M277.59,59.49a2.64,2.64,0,0,1,.56-1.68,3.59,3.59,0,0,1,1.55-1.09,6.21,6.21,0,0,1,2.29-.39,10.92,10.92,0,0,1,1.58.12,7.09,7.09,0,0,1,1.46.36v-.88a2.79,2.79,0,0,0-.78-2.08,2.92,2.92,0,0,0-2.16-.78,4.51,4.51,0,0,0-1.65.31,8.56,8.56,0,0,0-1.69.91l-.52-1a8.59,8.59,0,0,1,2-1,6,6,0,0,1,2-.35,4.21,4.21,0,0,1,3,1.09,4,4,0,0,1,1.12,3v4.78a.57.57,0,0,0,.12.41.53.53,0,0,0,.38.15v1.08l-.38,0a.93.93,0,0,1-.24,0,1,1,0,0,1-.76-.32,1.05,1.05,0,0,1-.28-.64l0-.76a4.53,4.53,0,0,1-1.82,1.39,5.61,5.61,0,0,1-2.28.49,3.75,3.75,0,0,1-1.81-.43A3.19,3.19,0,0,1,278,61.09,3,3,0,0,1,277.59,59.49Zm7,.79a2.47,2.47,0,0,0,.34-.53,1.09,1.09,0,0,0,.12-.46v-1.5a7.36,7.36,0,0,0-1.41-.4,8.13,8.13,0,0,0-1.47-.14,4.28,4.28,0,0,0-2.36.58,1.76,1.76,0,0,0-.9,1.56,2.07,2.07,0,0,0,.3,1.08,2.21,2.21,0,0,0,.88.83,2.71,2.71,0,0,0,1.36.33,4.35,4.35,0,0,0,1.83-.38A3.26,3.26,0,0,0,284.57,60.28Z"/></svg>