<svg id="圖層_1" data-name="圖層 1" xmlns="http://www.w3.org/2000/svg" viewBox="0 0 336.27 85.04"><defs><style>.cls-1{fill:#fff;}.cls-2{fill:#f3eb33;}.cls-3{fill:#1f2023;}</style></defs><title>akaS_logo</title><polygon class="cls-1" points="68.61 17.17 68.61 67.87 58.95 67.87 58.95 26.71 58.87 26.71 23 67.87 11.13 67.87 56.74 17.17 68.61 17.17"/><polygon class="cls-1" points="85.97 42.28 112 67.87 100.05 67.87 74.9 42.28 100.05 17.17 112 17.17 85.97 42.28"/><polygon class="cls-1" points="175.77 17.17 175.77 67.87 166.12 67.87 166.12 26.71 166.03 26.71 130.16 67.87 118.29 67.87 163.9 17.17 175.77 17.17"/><polygon class="cls-1" points="199.49 25.99 228.63 25.99 228.63 17.32 181.49 17.35 214.52 58.49 183.47 58.49 183.47 67.72 232.75 67.72 199.49 25.99"/><rect class="cls-2" x="241.29" y="40.52" width="88.24" height="27.46" rx="3.67" ry="3.67"/><path class="cls-3" d="M258.1,47.66H253v13h-1.4v-13h-5.06V46.42H258.1Z"/><path class="cls-3" d="M262.2,60.82a5,5,0,0,1-2.08-.43,5,5,0,0,1-1.66-1.18,5.3,5.3,0,0,1-1.09-1.72A5.59,5.59,0,0,1,257,55.4a5.36,5.36,0,0,1,.67-2.66,5.22,5.22,0,0,1,1.85-1.94,5.05,5.05,0,0,1,2.68-.72,4.88,4.88,0,0,1,2.69.73,5.27,5.27,0,0,1,1.81,1.94,5.38,5.38,0,0,1,.66,2.63v.31a1.21,1.21,0,0,1,0,.23H258.4a4.62,4.62,0,0,0,.63,2,3.94,3.94,0,0,0,1.38,1.37,3.53,3.53,0,0,0,1.85.51,3.81,3.81,0,0,0,1.93-.52,2.86,2.86,0,0,0,1.27-1.36l1.18.32a3.89,3.89,0,0,1-1,1.34,4.75,4.75,0,0,1-1.55.93A5.44,5.44,0,0,1,262.2,60.82Zm-3.84-5.88h7.7a4.27,4.27,0,0,0-.61-2,3.85,3.85,0,0,0-1.38-1.34,3.75,3.75,0,0,0-1.87-.48,3.68,3.68,0,0,0-1.86.48A3.93,3.93,0,0,0,259,53,4.27,4.27,0,0,0,258.36,54.94Z"/><path class="cls-3" d="M272.86,60.82a6.62,6.62,0,0,1-2.38-.42,5,5,0,0,1-1.9-1.28l.56-1a6.12,6.12,0,0,0,1.77,1.19,4.79,4.79,0,0,0,1.89.37,3.59,3.59,0,0,0,2-.49,1.55,1.55,0,0,0,.76-1.39,1.19,1.19,0,0,0-.37-1,2.84,2.84,0,0,0-1.06-.54c-.46-.14-1-.28-1.65-.44a12.89,12.89,0,0,1-1.81-.63,2.68,2.68,0,0,1-1.1-.84,2.13,2.13,0,0,1-.37-1.32,2.71,2.71,0,0,1,.51-1.68,3.19,3.19,0,0,1,1.4-1,5.47,5.47,0,0,1,2-.35,5.57,5.57,0,0,1,2.12.38,3.93,3.93,0,0,1,1.5,1.06l-.66.92a3.47,3.47,0,0,0-1.33-.95,4.69,4.69,0,0,0-2.93-.14,2.13,2.13,0,0,0-.95.55,1.48,1.48,0,0,0-.37,1.07,1.2,1.2,0,0,0,.28.86,2.12,2.12,0,0,0,.84.52q.56.21,1.38.45c.79.21,1.47.42,2.06.64a3.41,3.41,0,0,1,1.36.85,2,2,0,0,1,.48,1.45,2.65,2.65,0,0,1-1.1,2.26A4.71,4.71,0,0,1,272.86,60.82Z"/><path class="cls-3" d="M284.1,60.2l-.5.22a4.35,4.35,0,0,1-.82.28,4.3,4.3,0,0,1-1,.12,2.66,2.66,0,0,1-1.09-.22,1.84,1.84,0,0,1-.81-.67,2,2,0,0,1-.3-1.12V51.32H278.1V50.24h1.44V46.72h1.36v3.52h2.4v1.08h-2.4v7.11a1.11,1.11,0,0,0,.41.85,1.36,1.36,0,0,0,.85.28,2.61,2.61,0,0,0,1-.19,3.64,3.64,0,0,0,.56-.27Z"/><path class="cls-3" d="M294.56,60.62H293.2V54.84a5.15,5.15,0,0,0-.54-2.68,1.88,1.88,0,0,0-1.7-.84,3.48,3.48,0,0,0-1.58.39,4.22,4.22,0,0,0-1.37,1,3.88,3.88,0,0,0-.85,1.52v6.34H285.8V50.24H287v2.37a4.68,4.68,0,0,1,1.1-1.33,5.27,5.27,0,0,1,3.32-1.2,3.12,3.12,0,0,1,1.46.32,2.44,2.44,0,0,1,1,.9,4.27,4.27,0,0,1,.52,1.41,9.48,9.48,0,0,1,.16,1.84Z"/><path class="cls-3" d="M302,60.82a5,5,0,0,1-2.08-.43,5,5,0,0,1-1.66-1.18,5.3,5.3,0,0,1-1.09-1.72,5.59,5.59,0,0,1-.39-2.09,5.36,5.36,0,0,1,.67-2.66,5.22,5.22,0,0,1,1.85-1.94,5.05,5.05,0,0,1,2.68-.72,4.88,4.88,0,0,1,2.69.73,5.27,5.27,0,0,1,1.81,1.94,5.38,5.38,0,0,1,.66,2.63v.31a1.21,1.21,0,0,1,0,.23h-8.92a4.62,4.62,0,0,0,.63,2,3.94,3.94,0,0,0,1.38,1.37,3.53,3.53,0,0,0,1.85.51,3.81,3.81,0,0,0,1.93-.52,2.86,2.86,0,0,0,1.27-1.36l1.18.32a3.89,3.89,0,0,1-1,1.34,4.75,4.75,0,0,1-1.55.93A5.44,5.44,0,0,1,302,60.82Zm-3.84-5.88h7.7a4.27,4.27,0,0,0-.61-2,3.85,3.85,0,0,0-1.38-1.34,3.75,3.75,0,0,0-1.87-.48,3.68,3.68,0,0,0-1.86.48A3.93,3.93,0,0,0,298.73,53,4.27,4.27,0,0,0,298.12,54.94Z"/><path class="cls-3" d="M314.1,60.2a4.88,4.88,0,0,0-.5.22,4.35,4.35,0,0,1-.82.28,4.3,4.3,0,0,1-1,.12,2.66,2.66,0,0,1-1.09-.22,1.84,1.84,0,0,1-.81-.67,2,2,0,0,1-.3-1.12V51.32H308.1V50.24h1.44V46.72h1.36v3.52h2.4v1.08h-2.4v7.11a1.08,1.08,0,0,0,.41.85,1.34,1.34,0,0,0,.85.28,2.61,2.61,0,0,0,1-.19,3.64,3.64,0,0,0,.56-.27Z"/><path class="cls-3" d="M319.22,60.82a6.58,6.58,0,0,1-2.38-.42,5,5,0,0,1-1.9-1.28l.56-1a5.86,5.86,0,0,0,1.77,1.19,4.79,4.79,0,0,0,1.89.37,3.59,3.59,0,0,0,2-.49,1.57,1.57,0,0,0,.76-1.39,1.22,1.22,0,0,0-.37-1,2.84,2.84,0,0,0-1.06-.54c-.46-.14-1-.28-1.65-.44a12.45,12.45,0,0,1-1.81-.63,2.62,2.62,0,0,1-1.1-.84,2.13,2.13,0,0,1-.37-1.32,2.71,2.71,0,0,1,.51-1.68,3.14,3.14,0,0,1,1.4-1,5.43,5.43,0,0,1,2-.35,5.61,5.61,0,0,1,2.12.38,3.93,3.93,0,0,1,1.5,1.06l-.66.92a3.55,3.55,0,0,0-1.33-.95,4.52,4.52,0,0,0-1.71-.31,4.39,4.39,0,0,0-1.22.17,2.08,2.08,0,0,0-.95.55,1.48,1.48,0,0,0-.37,1.07,1.2,1.2,0,0,0,.28.86,2,2,0,0,0,.84.52q.56.21,1.38.45c.78.21,1.47.42,2.06.64a3.49,3.49,0,0,1,1.36.85,2,2,0,0,1,.48,1.45,2.65,2.65,0,0,1-1.1,2.26A4.73,4.73,0,0,1,319.22,60.82Z"/></svg>