<svg id="圖層_1" data-name="圖層 1" xmlns="http://www.w3.org/2000/svg" viewBox="0 0 850.39 850.39"><defs><style>.cls-1{fill:#1f2023;}.cls-2{fill:#fff;}</style></defs><title>akaS_web (1)</title><path class="cls-1" d="M0,.77V851.24H850.48V.77ZM425.24,794.62c-203.72,0-368.86-165.15-368.86-368.86S221.52,56.9,425.24,56.9,794.1,222,794.1,425.76,629,794.62,425.24,794.62Z"/><path class="cls-2" d="M425.24,29.58A397.76,397.76,0,0,1,580,793.65,397.76,397.76,0,0,1,270.45,60.83,395.07,395.07,0,0,1,425.24,29.58m0-4c-221.83,0-401.66,179.83-401.66,401.66S203.41,828.9,425.24,828.9,826.9,649.07,826.9,427.24,647.07,25.58,425.24,25.58Z"/><path class="cls-2" d="M425.24,58.9A367,367,0,0,1,568,763.79,367,367,0,0,1,282.44,87.73,364.56,364.56,0,0,1,425.24,58.9m0-2C221.52,56.9,56.38,222,56.38,425.76S221.52,794.61,425.24,794.61,794.1,629.47,794.1,425.76,629,56.9,425.24,56.9Z"/></svg>