<svg id="圖層_1" data-name="圖層 1" xmlns="http://www.w3.org/2000/svg" viewBox="0 0 850.39 850.39"><defs><style>.cls-1{fill:#fff;}.cls-2{fill:#1f2023;}</style></defs><title>akaS_web (1)</title><path class="cls-1" d="M3.12,0V847.28H850.39V0ZM426.76,790.86c-202.95,0-367.48-164.52-367.48-367.47S223.81,55.92,426.76,55.92,794.23,220.44,794.23,423.39,629.7,790.86,426.76,790.86Z"/><path class="cls-2" d="M426.76,28.72A396.25,396.25,0,0,1,581,789.89a396.25,396.25,0,0,1-308.39-730,393.55,393.55,0,0,1,154.2-31.13m0-4c-221,0-400.15,179.15-400.15,400.15S205.76,825,426.76,825,826.91,645.87,826.91,424.87,647.75,24.72,426.76,24.72Z"/><path class="cls-2" d="M426.76,57.92A365.56,365.56,0,0,1,569,760.14,365.56,365.56,0,0,1,284.5,86.64,363.12,363.12,0,0,1,426.76,57.92m0-2c-202.95,0-367.48,164.52-367.48,367.47S223.81,790.86,426.76,790.86,794.23,626.34,794.23,423.39,629.7,55.92,426.76,55.92Z"/></svg>