<svg id="圖層_1" data-name="圖層 1" xmlns="http://www.w3.org/2000/svg" viewBox="0 0 160 160"><defs><style>.cls-1{fill:#fff;}.cls-2{fill:none;stroke:#1f2023;stroke-miterlimit:10;stroke-width:0.8px;}.cls-3{fill:#1f2023;}</style></defs><path class="cls-1" d="M80,0a80,80,0,1,0,80,80A80,80,0,0,0,80,0Zm0,154.67A74.67,74.67,0,1,1,154.67,80,74.67,74.67,0,0,1,80,154.67Z"/><circle class="cls-2" cx="80" cy="80" r="74.67"/><path class="cls-3" d="M80,1.07A78.93,78.93,0,1,1,1.07,80,79,79,0,0,1,80,1.07M80,0a80,80,0,1,0,80,80A80,80,0,0,0,80,0Z"/></svg>