<svg id="圖層_1" data-name="圖層 1" xmlns="http://www.w3.org/2000/svg" viewBox="0 0 160 160"><defs><style>.cls-1{fill:#1f2023;}.cls-2{fill:none;stroke:#fff;stroke-miterlimit:10;stroke-width:0.8px;}.cls-3{fill:#fff;}</style></defs><path class="cls-1" d="M79.58.85a79.58,79.58,0,1,0,79.57,79.57A79.57,79.57,0,0,0,79.58.85Zm0,153.84a74.27,74.27,0,1,1,74.27-74.27A74.27,74.27,0,0,1,79.58,154.69Z"/><circle class="cls-2" cx="79.58" cy="80.42" r="74.27"/><path class="cls-3" d="M80,1.07A78.93,78.93,0,1,1,1.07,80,79,79,0,0,1,80,1.07M80,0a80,80,0,1,0,80,80A80,80,0,0,0,80,0Z"/></svg>