<svg id="圖層_1" data-name="圖層 1" xmlns="http://www.w3.org/2000/svg" viewBox="0 0 255.12 255.12"><defs><style>.cls-1{fill:#fff;}</style></defs><title>123</title><path class="cls-1" d="M61.88,127.43a62.72,62.72,0,0,1,62.58-62.54c34.57,0,62.79,28,62.76,62.34a62.59,62.59,0,0,1-63,63C89.86,190.2,61.93,162.06,61.88,127.43ZM124.65,71a56.59,56.59,0,1,0,56.51,56.6C181.34,96.51,156,71.08,124.65,71Z"/><path class="cls-1" d="M121.27,21.16c0-2.94,0-5.89,0-8.83,0-2.07.88-3.68,3.11-3.76,2.41-.08,3.4,1.55,3.42,3.76,0,5.89.06,11.77,0,17.66,0,2-.71,3.65-3.1,3.71s-3.38-1.51-3.42-3.71c-.06-2.94,0-5.89,0-8.83Z"/><path class="cls-1" d="M230.73,130.86c-2.74,0-5.48,0-8.21,0-2.24,0-4.11-.63-4.08-3.37s1.84-3.18,3.93-3.2c5.68,0,11.36,0,17,0,2.26,0,4.19.7,4.13,3.34s-2.06,3.21-4.29,3.22h-8.52Z"/><path class="cls-1" d="M127.83,234c0,2.94,0,5.88,0,8.82,0,2-.9,3.66-3.16,3.71-2.45,0-3.33-1.65-3.35-3.82,0-5.88,0-11.76,0-17.64,0-2,.76-3.63,3.15-3.66s3.32,1.6,3.37,3.77c.06,2.94,0,5.88,0,8.82Z"/><path class="cls-1" d="M18,130.83H9.77c-2.35,0-4.09-1.08-4.15-3.46s1.89-3.09,4-3.09c5.67,0,11.33,0,17,0,2.24,0,4.1.65,4.05,3.37s-2,3.18-4.22,3.2c-2.83,0-5.66,0-8.49,0Z"/><path class="cls-1" d="M42.81,42.59a19.22,19.22,0,0,1,3,1.92c4,3.88,7.88,7.83,11.81,11.76,1.53,1.53,2.28,3.28.57,5s-3.44.8-4.93-.71c-4-4-8.07-7.93-11.92-12.08a5.21,5.21,0,0,1-.91-3.78C40.51,44,41.87,43.39,42.81,42.59Z"/><path class="cls-1" d="M192.65,62.28c-.73-.67-2-1.29-2.16-2.1a5.12,5.12,0,0,1,.73-3.8c2.59-3,5.5-5.67,8.3-8.46,1.5-1.5,2.85-3.27,4.62-4.37,1-.61,3.24-.65,3.92.05s.91,3.22.24,3.94c-4.39,4.76-9.07,9.25-13.69,13.8A8.35,8.35,0,0,1,192.65,62.28Z"/><path class="cls-1" d="M59.06,195.79a15.09,15.09,0,0,1-1.64,2.85c-4,4.12-8.13,8.17-12.21,12.25-1.33,1.33-2.79,2.23-4.46.64s-1.36-3.45.2-5c4-4.1,8.07-8.24,12.29-12.17a5.11,5.11,0,0,1,3.76-.89C57.75,193.54,58.33,194.9,59.06,195.79Z"/><path class="cls-1" d="M193,193a22.74,22.74,0,0,1,2.94,2c3.84,3.76,7.6,7.61,11.43,11.39,1.63,1.6,2.58,3.4.75,5.27-2,2-3.61.55-5.14-1-3.85-3.89-7.84-7.67-11.54-11.7a5.74,5.74,0,0,1-1-4C190.55,194.29,192,193.74,193,193Z"/></svg>